<?xml version="1.0" encoding="utf-8" standalone="yes"?>
<?xml-stylesheet href="SVGStyle.css" type="text/css"?>
<svg xmlns="http://www.w3.org/2000/svg" version="1.2" baseProfile="tiny" xml:space="preserve" style="shape-rendering:geometricPrecision; fill-rule:evenodd;" width="6.32mm" height="8.18mm" viewBox="-3.18 -4.09 6.32 8.18">
  <title>ShipReportingServiceArea</title>
  <desc>pattern of symbol</desc>
  <metadata>
    <S100SVG xmlns:iho="http://www.iho.int/SVGMetadata">
      <Description publisher="IHB" creationDate="2019-08-14" source="S52Preslib4.0" format="S100SVG" version="0.1" />
    </S100SVG>
  </metadata>
  <rect class="symbolBox layout" fill="none" x="-3.18" y="-4.09" height="8.18" width="6.32" />
  <rect class="svgBox layout" fill="none" x="-3.18" y="-4.09" height="8.18" width="6.32" />
  <path d=" M -2.18,-2.88 L 0.01,-2.88 L 0.54,-2.88 L 0.85,-2.56 L 1.24,-2.17 L 1.74,-1.67 L 2.14,-1.29 L 2.14,0.00 L 2.14,2.89 L -2.12,2.89 L -2.13,-2.74 L -2.13,-2.88" class="sl f0 sUINFB" style="stroke-width:0.64;" />
  <path d=" M 0.52,-2.87 L 2.14,-1.26 L 0.52,-1.26 L 0.52,-2.47 L 0.52,-2.87" class="fUINFB" style="stroke-width:0.64;" />
  <path d=" M -1.42,-0.67 L -1.42,-0.28 L 1.1,-0.28 L 1.11,-0.67 L -1.42,-0.67" class="fUINFB" style="stroke-width:0.64;" />
  <path d=" M -1.4,0.18 L -1.4,0.57 L 0.08,0.57 L 0.09,0.18 L -1.4,0.18" class="fUINFB" style="stroke-width:0.64;" />
</svg>