<?xml version="1.0" encoding="utf-8" standalone="yes"?>
<?xml-stylesheet href="SVGStyle.css" type="text/css"?>
<svg xmlns="http://www.w3.org/2000/svg" version="1.2" baseProfile="tiny" xml:space="preserve" style="shape-rendering:geometricPrecision; fill-rule:evenodd;" width="8.889999mm" height="7.94mm" viewBox="-4.42 -3.97 8.889999 7.94">
  <title>CautionArea</title>
  <desc>pattern of symbol</desc>
  <metadata>
    <S100SVG xmlns:iho="http://www.iho.int/SVGMetadata">
      <Description publisher="IHB" creationDate="2019-08-20" source="S52Preslib4.0" format="S100SVG" version="0.1" />
    </S100SVG>
  </metadata>
  <rect class="symbolBox layout" fill="none" x="-4.42" y="-3.97" height="7.94" width="8.889999" />
  <rect class="svgBox layout" fill="none" x="-4.42" y="-3.97" height="7.94" width="8.889999" />
  <path d=" M -0.38,-1.67 L 0.42,-1.67 L 0.42,1.03 L -0.38,1.03 L -0.38,-1.67 L -0.38,-1.67" class="fUINFB" style="stroke-width:0.64;" />
  <path d=" M -0.39,1.34 L 0.41,1.34 L 0.41,2.17 L -0.39,2.17 L -0.39,1.34 L -0.39,1.34" class="fUINFB" style="stroke-width:0.64;" />
  <path d=" M -3.39,2.46 L -0.29,-2.81 L -0.24,-2.88 L -0.18,-2.93 L -0.12,-2.96 L -0.03,-2.97 L 0.08,-2.96 L 0.18,-2.92 L 0.23,-2.88 L 0.28,-2.81 L 3.41,2.49 L 3.45,2.60 L 3.44,2.65 L 3.44,2.71 L 3.38,2.82 L 3.29,2.91 L 3.21,2.95 L 3.15,2.96 L -3.1,2.97 L -3.18,2.95 L -3.23,2.93 L -3.27,2.91 L -3.32,2.86 L -3.35,2.82 L -3.39,2.75 L -3.41,2.69 L -3.42,2.60 L -3.41,2.52 L -3.38,2.44" class="sl f0 sUINFB" style="stroke-width:0.64;" />
  
</svg>